<?xml version="1.0" encoding="UTF-8"?>
<!DOCTYPE svg PUBLIC "-//W3C//DTD SVG 1.1//EN" "http://www.w3.org/Graphics/SVG/1.1/DTD/svg11.dtd">
<!-- Creator: CorelDRAW X7 -->
<svg xmlns="http://www.w3.org/2000/svg" xml:space="preserve" width="512px" height="88px" version="1.1" style="shape-rendering:geometricPrecision; text-rendering:geometricPrecision; image-rendering:optimizeQuality; fill-rule:evenodd; clip-rule:evenodd"
viewBox="0 0 507 87"
 xmlns:xlink="http://www.w3.org/1999/xlink">
 <defs>
  <style type="text/css">
   <![CDATA[
    .fil0 {fill:white}
   ]]>
  </style>
 </defs>
 <g id="Layer_x0020_1">
  <metadata id="CorelCorpID_0Corel-Layer"/>
  <path class="fil0" d="M315 26l0 5c0,1 -1,2 -2,2 -1,0 -3,0 -4,0 -7,0 -10,4 -10,11l0 18c0,0 -1,1 -2,1l-6 0c-1,0 -1,-1 -1,-1l0 -36c0,-1 0,-2 1,-2l6 0c1,0 1,1 1,2l0 2c3,-3 7,-4 12,-4 1,0 2,0 3,0 1,0 2,1 2,2zm-60 15c0,0 0,-1 1,-1l14 -14c1,-1 0,-2 -1,-2l-8 0c-1,0 -1,0 -1,1l-16 14c-1,1 -2,1 -2,0l0 -13c0,-1 -1,-2 -2,-2l-6 0c0,0 -1,1 -1,2l0 36c0,0 1,1 1,1l6 0c1,0 2,-1 2,-1l0 -9c0,0 0,-1 0,-1l5 -5c1,0 1,0 2,1l12 15c0,0 1,0 1,0l9 0c0,0 1,-1 0,-1l-16 -21zm-47 -17l-6 0c-1,0 -2,1 -2,2l0 36c0,0 1,1 2,1l6 0c1,0 1,-1 1,-1l0 -36c0,-1 0,-2 -1,-2zm209 0l-36 0c0,0 -1,1 -1,2l0 5c0,1 1,2 1,2l12 0c1,0 1,0 1,1l0 28c0,0 1,1 2,1l6 0c1,0 2,-1 2,-1l0 -28c0,-1 0,-1 1,-1l12 0c0,0 1,-1 1,-2l0 -5c0,-1 -1,-2 -1,-2zm-49 20c0,11 -9,20 -21,20 -11,0 -20,-9 -20,-20 0,-12 9,-20 20,-20 12,0 21,8 21,20zm-9 0c0,-7 -5,-12 -12,-12 -6,0 -11,5 -11,12 0,7 5,11 11,11 7,0 12,-4 12,-11zm85 -20l-6 0c-1,0 -2,1 -2,2l0 36c0,0 1,1 2,1l6 0c1,0 1,-1 1,-1l0 -36c0,-1 0,-2 -1,-2zm-283 0c-5,0 -10,2 -13,5 -1,0 -1,0 -2,0 -3,-3 -7,-5 -12,-5 -5,0 -9,1 -11,4l0 -2c0,-1 -1,-2 -2,-2l-5 0c-1,0 -2,1 -2,2l0 36c0,0 1,1 2,1l5 0c1,0 2,-1 2,-1l0 -19c0,-7 4,-11 10,-11 5,0 8,3 8,10l0 20c0,0 1,1 2,1l5 0c1,0 2,-1 2,-1l0 -19c0,-7 4,-11 10,-11 5,0 8,3 8,10l0 20c0,0 1,1 2,1l5 0c1,0 2,-1 2,-1l0 -21c0,-11 -6,-17 -16,-17zm346 38l-16 -21c0,0 0,-1 0,-1l15 -14c0,-1 0,-2 -1,-2l-8 0c-1,0 -1,0 -1,1l-17 14c0,1 -1,1 -1,0l0 -13c0,-1 -1,-2 -2,-2l-6 0c-1,0 -1,1 -1,2l0 36c0,0 0,1 1,1l6 0c1,0 2,-1 2,-1l0 -9c0,0 0,-1 0,-1l5 -5c1,0 1,0 2,1l12 15c0,0 1,0 1,0l8 0c1,0 2,-1 1,-1zm-426 -39c0,-1 0,-1 0,-1 0,0 0,-1 -1,-1 0,-1 -2,-2 -4,-3l-14 -8 -15 -8c-2,-1 -4,-2 -5,-2 0,0 -1,0 -1,0 -2,0 -4,1 -6,2l-14 8 -15 8c-2,1 -4,2 -4,3 -1,0 -1,1 -1,1 0,0 0,0 0,1 -1,1 -1,3 -1,5l0 32c0,2 0,4 1,6 1,1 3,2 5,3l15 8 14 9c2,1 4,1 5,1 1,0 1,0 1,0 0,0 1,0 1,0 1,0 3,0 5,-1l29 -17c3,-1 4,-2 5,-3 0,-1 0,-1 0,-1 1,-1 1,-3 1,-5l0 -32c0,-2 0,-4 -1,-5zm-57 38c0,0 -1,1 -2,0l-5 -2c-1,-1 -2,-2 -2,-4l0 -16c0,0 1,-1 1,0l7 3c0,0 1,1 1,2l0 17 0 0zm43 -6c0,2 -1,3 -2,4l-5 2c-1,1 -2,0 -2,0l0 -21c0,-1 0,-1 -1,-1l-10 5c-1,1 -2,2 -2,4l0 20c0,1 0,2 -1,2l-1 1c-1,0 -3,0 -4,0l-1 -1c-1,0 -1,-1 -1,-2l0 -20c0,-2 -1,-3 -2,-4l-20 -11 0 -1c0,-1 1,-2 2,-3l2 -1c1,-1 3,-1 4,0l16 9c1,0 3,0 4,0l7 -4c1,-1 1,-2 0,-2l-16 -9c-1,-1 -1,-2 0,-2l5 -3c1,-1 3,-1 4,0l22 12c1,1 2,2 2,3l0 23 0 0z"/>
 </g>
</svg>
